<mxfile host="app.diagrams.net" agent="Mozilla/5.0 (Macintosh; Intel Mac OS X 10_15_7) AppleWebKit/537.36 (KHTML, like Gecko) Chrome/131.0.0.0 Safari/537.36" version="26.0.4">
  <diagram name="Page-1" id="FuIUpxmvIo3iQLBVbU7Z">
    <mxGraphModel dx="1434" dy="819" grid="1" gridSize="10" guides="1" tooltips="1" connect="1" arrows="1" fold="1" page="1" pageScale="1" pageWidth="827" pageHeight="1169" math="0" shadow="0">
      <root>
        <mxCell id="0" />
        <mxCell id="1" parent="0" />
        <mxCell id="GkzvFpltm8AMeFEecuHZ-2" value="Scenario Modeling Tool (SMT)" style="ellipse;whiteSpace=wrap;html=1;" parent="1" vertex="1">
          <mxGeometry x="340" y="240" width="120" height="80" as="geometry" />
        </mxCell>
        <mxCell id="GkzvFpltm8AMeFEecuHZ-3" value="Baza Danych" style="rounded=1;whiteSpace=wrap;html=1;" parent="1" vertex="1">
          <mxGeometry x="660" y="250" width="120" height="60" as="geometry" />
        </mxCell>
        <mxCell id="GkzvFpltm8AMeFEecuHZ-5" value="" style="endArrow=classic;startArrow=classic;html=1;rounded=0;" parent="1" edge="1">
          <mxGeometry width="50" height="50" relative="1" as="geometry">
            <mxPoint x="480" y="280" as="sourcePoint" />
            <mxPoint x="640" y="280" as="targetPoint" />
            <Array as="points" />
          </mxGeometry>
        </mxCell>
        <mxCell id="GkzvFpltm8AMeFEecuHZ-6" value="Zapisywanie i pobieranie&amp;nbsp;&lt;div&gt;danych scenariusza&amp;nbsp;&lt;/div&gt;" style="edgeLabel;html=1;align=center;verticalAlign=middle;resizable=0;points=[];" parent="GkzvFpltm8AMeFEecuHZ-5" vertex="1" connectable="0">
          <mxGeometry x="0.0769" y="-4" relative="1" as="geometry">
            <mxPoint x="-6" y="-4" as="offset" />
          </mxGeometry>
        </mxCell>
        <mxCell id="GkzvFpltm8AMeFEecuHZ-9" value="Twórca scenariusza&amp;nbsp;" style="shape=umlActor;verticalLabelPosition=bottom;verticalAlign=top;html=1;outlineConnect=0;" parent="1" vertex="1">
          <mxGeometry x="100" y="240" width="40" height="80" as="geometry" />
        </mxCell>
        <mxCell id="GkzvFpltm8AMeFEecuHZ-13" value="Tworzenie&amp;nbsp;&lt;div&gt;Przegląd&lt;/div&gt;&lt;div&gt;Edycja&lt;/div&gt;&lt;div&gt;Zarządzanie&lt;/div&gt;&lt;div&gt;uprawnieniami&lt;/div&gt;" style="endArrow=classic;startArrow=classic;html=1;rounded=0;" parent="1" edge="1">
          <mxGeometry x="0.0044" width="50" height="50" relative="1" as="geometry">
            <mxPoint x="160" y="279.5" as="sourcePoint" />
            <mxPoint x="320" y="280" as="targetPoint" />
            <mxPoint as="offset" />
          </mxGeometry>
        </mxCell>
      </root>
    </mxGraphModel>
  </diagram>
</mxfile>
